<svg id="Layer_1" data-name="Layer 1" xmlns="http://www.w3.org/2000/svg" viewBox="0 0 203.97 53.76">
    <defs>
        <style>
            .cls-1 {
                fill: #DA1F26;
            }

        </style>
    </defs>
    <title>CL Logo_registered_small[1562]</title>
    <path class="cls-1" d="M8.62,73.21V64.82s-.34-3.64,4.11-3.65c4.28,0,4.19,3.13,4.13,3.13v4.17l-2.72,0V65s.34-1.44-1.38-1.46a1.4,1.4,0,0,0-1.55,1.49V85.84a1.42,1.42,0,0,0,1.55,1.5,1.27,1.27,0,0,0,1.38-1.47V82.4h2.72v4.19c0,.32-.2,3.13-4.13,3.13-4.25,0-4.11-3.65-4.11-3.65V73.21Z" transform="translate(-8.62 -49.72)" />
    <path class="cls-1" d="M26.37,61.78H22.92l-3.5,27.91h2.41l.79-7.18.07-.57h3.68l0,.34.76,7.47H29.7ZM22.87,80l.07-.52,1.65-15,1.57,15.33,0,.23Z" transform="translate(-8.62 -49.72)" />
    <polygon class="cls-1" points="24.82 39.98 24.82 11.66 28.5 11.66 32.17 35.95 32.17 11.54 34.47 11.54 34.47 40.03 30.73 40.03 26.94 16.08 26.94 39.98 24.82 39.98" />
    <path class="cls-1" d="M68.9,87V64.68a2.82,2.82,0,0,0-2.9-2.9H60.54v28s2.6,0,5.65,0A2.44,2.44,0,0,0,68.9,87Zm-2.3-.54a1.16,1.16,0,0,1-1.21,1.07H62.7V64h2.91a1,1,0,0,1,1,1Z" transform="translate(-8.62 -49.72)" />
    <rect class="cls-1" x="64.34" y="11.95" width="2.7" height="28.03" />
    <polygon class="cls-1" points="84.61 39.98 84.61 11.66 88.29 11.66 91.96 35.95 91.96 11.54 94.26 11.54 94.26 40.03 90.53 40.03 86.73 16.08 86.73 39.98 84.61 39.98" />
    <polygon class="cls-1" points="102.01 0 102.01 45.03 113.84 45.03 113.84 40.9 106.55 40.9 106.55 0 102.01 0" />
    <path class="cls-1" d="M131.71,59.94h-.49s-5.89-.4-5.89,4.85v4.63h4V64.48A1.58,1.58,0,0,1,131.1,63h0a1.43,1.43,0,0,1,1.54,1.44v9.16l-3.15.46s-4.66.77-4.66,5.08V91.13s-.06,4,4,4H129s3.21-.07,4.15-1.81v1.38h3.62V64.88S137.31,59.94,131.71,59.94Zm1,29.87c0,1.72-1.89,1.92-1.89,1.92h-.46c-1.41.14-1.44-1.92-1.44-1.92V80.5c0-3,2.19-3.19,2.19-3.19l1.6-.23Z" transform="translate(-8.62 -49.72)" />
    <polygon class="cls-1" points="131.94 10.63 135.61 44.63 139.98 44.63 143.37 16.54 146.12 44.63 151.06 44.63 154.8 10.68 150.72 10.68 148.71 37.79 146.07 10.74 140.55 10.74 137.8 37.74 135.44 10.63 131.94 10.63" />
    <path class="cls-1" d="M166.34,60.4h3.74l2.58,22.95,3.16-22.95h3l-5.4,40.43-.45,2.65H169.5s.29-1.44.46-2.7S171.17,93,171.17,93Z" transform="translate(-8.62 -49.72)" />
    <path class="cls-1" d="M193.05,77.17V64.42s-.11-4.82-5.56-4.82h-.24s-5.2.25-5.23,5.31,0,24.24,0,24.24,0,5,5.66,5h.12s5.25-.25,5.25-4.27V83h-3.68v6.46a1.6,1.6,0,0,1-1.77,1.64h0a1.75,1.75,0,0,1-1.66-1.77c0-1.66,0-12.19,0-12.19Zm-7.27-3V64.93a1.72,1.72,0,0,1,1.67-1.86h.17c1.64,0,1.52,2,1.52,2v9.08Z" transform="translate(-8.62 -49.72)" />
    <path class="cls-1" d="M197.88,59.94V93.83H202v-28S201.75,63,203.85,63h1.75v-3.1h-2.18s-1.78.26-1.78,1.78V59.94Z" transform="translate(-8.62 -49.72)" />
    <path class="cls-1" d="M53.25,61.78H49.8L46.3,89.69h2.41l.79-7.18.07-.57h3.68l0,.34.76,7.47h2.53ZM49.75,80l.07-.52,1.65-15L53,79.81l0,.23Z" transform="translate(-8.62 -49.72)" />
    <path class="cls-1" d="M86.28,61.78H82.83l-3.5,27.91h2.41l.78-7.18.08-.57h3.68l0,.34.76,7.47h2.53ZM82.77,80l.08-.52,1.65-15,1.56,15.33,0,.23Z" transform="translate(-8.62 -49.72)" />
    <path class="cls-1" d="M212.58,62A2.63,2.63,0,1,1,210,59.4,2.57,2.57,0,0,1,212.58,62ZM208,62a2,2,0,0,0,2,2,2,2,0,0,0,2-2,2,2,0,1,0-4,0Zm1.57,1.33H209V60.73a5.82,5.82,0,0,1,1-.08,1.4,1.4,0,0,1,.88.2.65.65,0,0,1-.27,1.16v0c.25.07.38.28.46.62a2.52,2.52,0,0,0,.18.63h-.62a1.91,1.91,0,0,1-.2-.63c-.05-.26-.21-.39-.53-.39h-.29Zm0-1.44h.28c.33,0,.59-.11.59-.38s-.17-.39-.54-.39a1.11,1.11,0,0,0-.33,0Z" transform="translate(-8.62 -49.72)" />
</svg>
