<svg xmlns="http://www.w3.org/2000/svg" width="305" height="70.569" viewBox="0 0 305 70.569">
    <defs>
        <style>
            .cls-1{fill:#005a84}
        </style>
    </defs>
    <g id="lawtimes" transform="translate(419.053 -297.017)">
        <path id="패스_252" d="M-207.181 370.252c-2.124-11.236-4.208-22.4-6.35-33.547q-2.562-13.34-5.246-26.654c-.623-3.1-2.062-5.505-5.743-5.678v-2.617h16.32v2.521c-.274.056-.518.1-.758.151-3.764.814-4.393 1.591-3.693 5.413 2.629 14.34 5.339 28.664 8.344 43.057a6.956 6.956 0 0 0 .345-.956q4.934-23.984 9.846-47.967c.148-.718.179-1.421 1.215-1.44s1.07.65 1.233 1.387q5.345 23.891 10.724 47.776a3.464 3.464 0 0 0 .684 1.492c.284-1.267.617-2.525.842-3.8q3.283-18.6 6.526-37.206a25.436 25.436 0 0 0 .333-3.209c.12-2.577-.694-3.585-3.2-4.3-.647-.185-1.581-.527-1.751-1.017-.515-1.489 0-2.034 1.6-2.041q5.78-.014 11.556 0c.453 0 .9.065 1.449.1v2.642c-4.374.123-5.623 3.252-6.35 6.815-2.272 11.082-4.574 22.154-6.763 33.251-1.634 8.283-3.129 16.593-4.639 24.9-.268 1.477-1.214 1.036-2.112 1l-11.455-50.948-.465.012c-.558 2.66-1.122 5.32-1.674 7.981q-4.087 19.767-8.172 39.536a11.189 11.189 0 0 0-.4 1.951c-.039 1.565-.874 1.783-2.246 1.395z" class="cls-1" data-name="패스 252" transform="translate(-134.568 -3.178)"/>
        <path id="패스_253" d="M228.348 323.831c-.506 5.3-1.11 10.6-1.492 15.909-.53 7.364-.9 14.744-1.332 22.114-.2 3.4.823 4.883 4.01 5.441 1.039.182 1.042.348.888 2.891H226.2c-2.568 0-5.139.037-7.7-.043-.382-.012-1.054-.567-1.057-.882-.009-.657.234-1.846.546-1.9 3.425-.635 3.961-3.3 4.245-6a1437.74 1437.74 0 0 0 2.512-25.711c.9-10.215 1.652-20.446 2.537-30.662.068-.774-.391-2.065.937-2.272 1.538-.243 1.282 1.211 1.52 2.013q7.172 24.3 14.275 48.614a12.671 12.671 0 0 0 .539 1.23c1.366-4.907 2.639-9.473 3.912-14.041q5.086-18.264 10.148-36.537c.311-1.128.764-1.606 2.062-1.1.305 3.631.607 7.3.928 10.971q.869 10.038 1.757 20.073c.441 5.006.857 10.012 1.338 15.012q.689 7.111 1.5 14.213a4.238 4.238 0 0 0 3.563 4.075c1.282.259.737 1.295.709 2.007a1.271 1.271 0 0 1-.875.888c-4.51.059-9.022.04-13.5.04-.521-2.383-.469-2.478 1.6-3.092 2.173-.647 2.913-1.477 2.777-3.785-.259-4.451-.638-8.9-1.045-13.341-.53-5.82-1.134-11.63-1.708-17.444a70.849 70.849 0 0 0-1.2-8.514c-.974 3.511-1.933 7.028-2.925 10.533-3.178 11.227-6.39 22.444-9.531 33.68-.33 1.174-.989 1.088-1.933.937l-13.4-45.39c-.131.03-.256.052-.383.073z" class="cls-1" data-name="패스 253" transform="translate(-440.293 -3.925)"/>
        <path id="패스_254" d="M-307.592 366.706h-13.132c-.573-2.235-.512-2.426 1.486-3.083a5.368 5.368 0 0 0 3.477-4.007 281.053 281.053 0 0 0 3.082-11.874q5.627-23.974 11.153-47.97a2.4 2.4 0 0 1 2.377-2.022c.388 1.717.792 3.477 1.181 5.243q5.849 26.679 11.72 53.352a16.845 16.845 0 0 0 1.643 4.759 6.609 6.609 0 0 0 2.9 2.5c1.979.882 2.047.724 1.757 3.07h-15.613c-.373-1.612-.339-2.821 1.674-3.166 1.248-.213 1.692-1.205 1.43-2.469-1.134-5.462-2.275-10.921-3.372-16.387-.194-.968-.589-1.35-1.631-1.329-3.388.065-6.775-.006-10.163.065-.466.009-1.255.465-1.329.829-1.036 5.16-2.062 10.326-2.891 15.523-.385 2.41.4 3.317 2.626 3.943 2.044.572 2.069.617 1.625 3.023zm5.684-53.42c-.151-.006-.305-.015-.456-.022-1.76 8.233-3.523 16.467-5.311 24.826h10.887c-1.729-8.368-3.425-16.59-5.12-24.804z" class="cls-1" data-name="패스 254" transform="translate(-67.802 -.507)"/>
        <path id="패스_255" d="M395.3 305.234c-.361-2.7-.361-2.7 2.185-2.7 6.933 0 13.865.034 20.795-.028 1.39-.012 1.809.385 1.834 1.813.065 3.742.336 7.478.524 11.217.034.675.108 1.5-.851 1.421-.324-.028-.724-.755-.851-1.23-.6-2.219-1.06-4.476-1.689-6.686a2.9 2.9 0 0 0-3.138-2.189q-3 .046-6.008 0c-1.091-.015-1.634.475-1.64 1.554-.049 7.854-.086 15.705-.151 23.56-.006.943.5 1.082 1.27 1.088 1.948.012 3.9.089 5.848.1 2.512.009 3.406-.718 3.964-3.147.148-.641.277-1.289.413-1.927 1.039-.376 1.458-.034 1.452 1.023q-.028 7.084 0 14.17c.006 1.039-.373 1.418-1.415 1.076-.24-1.131-.49-2.272-.731-3.412a4.659 4.659 0 0 0-4.556-4.053c-1.985-.136-3.986-.028-6.119-.028-.046.546-.129 1.042-.126 1.538.046 7.133.018 14.272.225 21.4a12.548 12.548 0 0 0 1.5 4.716 2.742 2.742 0 0 0 1.988 1.224 40.8 40.8 0 0 0 5.983-.056 3.62 3.62 0 0 0 3.237-2.694c.965-2.9 1.853-5.832 2.8-8.828.8-.093 1.507.065 1.35 1.285-.616 4.818-1.227 9.636-1.846 14.528h-27.2v-2.407c.447-.117.875-.24 1.313-.342 3.16-.743 4.121-1.822 4.14-5.108q.125-24.256.16-48.513c0-1.076-.111-2.152-.145-3.227-.115-3.472-.983-4.49-4.515-5.138z" class="cls-1" data-name="패스 255" transform="translate(-562.67 -3.799)"/>
        <path id="패스_256" d="M27.8 318.642h-1.78l.783-16.834c.521.129 1.227.092 1.455.407a2.583 2.583 0 0 0 2.46.885c9.087-.018 18.174.006 27.259-.052a7.817 7.817 0 0 0 2.29-.826c.428-.154.872-.271 1.529-.472.225 5.737.438 11.208.66 16.809h-1.807c-.432-1.954-.792-3.964-1.325-5.928-1.079-3.97-2.426-4.978-6.544-5.052-1.785-.031-3.57-.006-5.515-.006-.028.555-.077 1.1-.077 1.637v50.211a19.324 19.324 0 0 0 .185 3.218c.462 2.716 1.338 3.514 4.1 3.967.755.123 1.514.253 2.38.4v2.441H34.774v-2.417c.848-.148 1.692-.293 2.534-.444 2.525-.453 3.662-1.677 3.838-4.245.136-1.994.265-3.995.268-5.992.022-15.659-.012-31.318.049-46.974.006-1.594-.462-2.1-1.994-1.964-1.683.145-3.385.092-5.071.2-2.17.145-3.869 1.045-4.51 3.283-.715 2.496-1.359 5.02-2.088 7.748z" class="cls-1" data-name="패스 256" transform="translate(-307.879 -3.274)"/>
        <path id="패스_257" d="M-390.415 352.908c.484.727 1.177 1.292 1.125 1.772-.521 4.877-1.165 9.744-1.785 14.67h-27.656c-.6-2.253-.5-2.46 1.551-2.925a3.656 3.656 0 0 0 3.067-3.224 26.6 26.6 0 0 0 .321-3.828q.032-23.873 0-47.748a29.086 29.086 0 0 0-.3-3.832c-.345-2.531-2.226-3.221-4.485-3.465v-2.521a3.168 3.168 0 0 1 .731-.182c4.673-.015 9.343-.055 14.016 0 2.035.025.931 1.572 1.147 2.438-.148.136-.213.243-.3.265-3.665.86-4.078 1.292-4.482 4.944a29.634 29.634 0 0 0-.185 3.224q-.019 21.87 0 43.744c0 1.791.117 3.588.25 5.376.222 3 1.433 4.263 4.39 4.507a23.636 23.636 0 0 0 4.152-.009 5.858 5.858 0 0 0 5.462-4.047c.977-2.858 1.871-5.731 2.981-9.159z" class="cls-1" data-name="패스 257" transform="translate(0 -3.167)"/>
        <path id="패스_258" d="M515.849 312.942c-1.067-3.252-1.822-6.353-3.1-9.223-1.415-3.178-4.793-4.368-7.222-2.66a8.036 8.036 0 0 0-2.864 3.653c-2.753 7.913-1.384 15.018 4.611 21.084a88.179 88.179 0 0 1 6.948 7.386c3.77 4.818 4.889 10.5 4.556 16.519a24.438 24.438 0 0 1-3.452 12.133c-2.506 3.921-5.9 6.23-10.773 5.669a11.712 11.712 0 0 1-6.748-3.061c-.654-.607-.771-1.936-.879-2.962-.4-3.77-.666-7.555-1.051-11.328-.114-1.113.271-1.631 1.5-1.726a42.136 42.136 0 0 0 1.251 5.28 36.009 36.009 0 0 0 3.416 7.651c2.817 4.192 7.826 3.881 9.963-.694 3.261-6.985 2.935-13.982-1.643-20.375a54.959 54.959 0 0 0-6.116-6.692c-8.064-8.036-9.112-19.864-5.2-29.1 1.591-3.758 4.164-6.59 8.443-7.339 3-.524 5.653.536 8.224 1.9a1.025 1.025 0 0 1 .419.721c.333 3.881.617 7.768.962 11.646.096 1.182-.428 1.565-1.245 1.518z" class="cls-1" data-name="패스 258" transform="translate(-632.889)"/>
        <path id="패스_259" d="M169.771 370.407h-14.538c-.647-2.21-.512-2.469 1.5-2.981a3.422 3.422 0 0 0 2.857-3.027 28.014 28.014 0 0 0 .308-3.511q.028-24.178.012-48.355c0-.361-.006-.718-.015-1.079-.08-4.057-.863-5.021-4.846-5.869v-2.515h14.79v2.457c-4.279 1.15-4.821 1.822-4.84 6.3q-.092 23.479-.129 46.962a51.806 51.806 0 0 0 .447 5.811 3.229 3.229 0 0 0 2.683 2.805c2.094.564 2.094.564 1.771 3.002z" class="cls-1" data-name="패스 259" transform="translate(-397.022 -4.187)"/>
    </g>
</svg>
