<svg xmlns="http://www.w3.org/2000/svg" viewBox="0 0 291.41 82.75"><path d="M276.78,310.31V252.85h16v44.8h22.78v12.66Z" transform="translate(-276.78 -252.85)" fill="#e6292e"/><path d="M350.37,310.31H315.14V252.85h35.19v12.41H331.14v9H349v12.41H331.14v10.8h19.19l0,12.87Z" transform="translate(-276.78 -252.85)" fill="#e6292e"/><path d="M404.06,310.31h-18.5L374,292.4l-11.52,17.91h-18l19.65-29.43-18.5-28h17.82L374,270.55l10.37-17.7H402.7L384,282Z" transform="translate(-276.78 -252.85)" fill="#e6292e"/><path d="M443.56,271c0,6.44-2,11.27-5.89,14.95-3.85,3.43-9.48,5.29-16.68,5.29h-4.53v19.1h-16v-57.5H421.2c7.46,0,13.09,1.61,16.94,4.83C441.74,260.68,443.56,265.26,443.56,271Zm-26.85,7.58h2.92a7.34,7.34,0,0,0,5.64-2.07,7.57,7.57,0,0,0,2-5.5c0-3.9-2.25-5.76-6.57-5.76h-4.06V278.6Z" transform="translate(-276.78 -252.85)" fill="#e6292e"/><path d="M478.28,310.31H443.1V252.85h35.18v12.41H459.1v9h17.83v12.41H459.1v10.8h19.18Z" transform="translate(-276.78 -252.85)" fill="#e6292e"/><path d="M494.75,289.39v20.92h-16V252.85h19.39c16,0,24.13,5.76,24.13,17,0,6.65-3.38,11.73-10.16,15.41l17.15,25.07h-18l-12.61-20.92h-3.86Zm0-11.73h2.92c5.64,0,8.35-2.28,8.35-7.11,0-3.9-2.71-6-8.13-6h-3.18l0,13.08Z" transform="translate(-276.78 -252.85)" fill="#e6292e"/><path d="M550.94,310.31h-16v-44.8H520.5V252.85h44.88v12.66H550.94Z" transform="translate(-276.78 -252.85)" fill="#e6292e"/><path d="M558.18,305.27a4.84,4.84,0,0,1,.68-2.54,6.07,6.07,0,0,1,1.82-1.82,4.33,4.33,0,0,1,2.5-.68,5,5,0,0,1,5,5.06,5.1,5.1,0,0,1-.69,2.52,6.31,6.31,0,0,1-1.82,1.82,4.76,4.76,0,0,1-5,0,7.49,7.49,0,0,1-1.82-1.82A4.25,4.25,0,0,1,558.18,305.27Zm1.1,0a7,7,0,0,0,.47,2.07,4.11,4.11,0,0,0,1.35,1.4,5.28,5.28,0,0,0,2,.47,6.81,6.81,0,0,0,2-.47,3.86,3.86,0,0,0,1.35-1.4,5.89,5.89,0,0,0,.47-2.07,7.13,7.13,0,0,0-.47-2.08,4.4,4.4,0,0,0-1.35-1.4,3.12,3.12,0,0,0-2-.46,6.8,6.8,0,0,0-2,.46,3.93,3.93,0,0,0-1.35,1.4A3.53,3.53,0,0,0,559.28,305.27Zm6.1-1.14c0,.46,0,.67-.21.93l-.68.67,1.36,2.54H564l-.89-2.07h-.22v2.07H561.1v-6h2c1.35,0,2.24.68,2.24,1.83Zm-2.71.67a.77.77,0,0,0,.68-.21c.21,0,.21-.21.21-.47s0-.46-.21-.46-.21-.21-.68-.21Z" transform="translate(-276.78 -252.85)" fill="#e6292e"/><g style="isolation:isolate"><g style="isolation:isolate"><path d="M277.39,335.35V318.29h5.67a7.43,7.43,0,0,1,4.43,1.16,4,4,0,0,1,1.6,3.49,3.46,3.46,0,0,1-.67,2.07,3.91,3.91,0,0,1-1.85,1.36,3.84,3.84,0,0,1,2.34,1.47,4.29,4.29,0,0,1,.82,2.61,4.37,4.37,0,0,1-1.57,3.65,6.81,6.81,0,0,1-4.34,1.25Zm2.85-9.88h3.14a3.2,3.2,0,0,0,2.09-.63,2.16,2.16,0,0,0,.77-1.77,2.2,2.2,0,0,0-.81-1.88,3.87,3.87,0,0,0-2.37-.62h-2.82Zm0,2.12v5.47h3.58a3.43,3.43,0,0,0,2.28-.67,2.41,2.41,0,0,0,.8-1.94,3.09,3.09,0,0,0-.67-2.11,2.67,2.67,0,0,0-2.09-.75Z" transform="translate(-276.78 -252.85)"/><path d="M305.73,318.29v11.43a5.32,5.32,0,0,1-1.85,4.36A7.42,7.42,0,0,1,299,335.6a7.11,7.11,0,0,1-4.75-1.53,5.35,5.35,0,0,1-1.82-4.35V318.29h2.85v11.43a3.43,3.43,0,0,0,1,2.69,3.91,3.91,0,0,0,2.71.9,4.15,4.15,0,0,0,2.8-.9,3.38,3.38,0,0,0,1-2.69V318.29Z" transform="translate(-276.78 -252.85)"/><path d="M318.37,331a2.17,2.17,0,0,0-.79-1.73,7.36,7.36,0,0,0-2.79-1.22,11.8,11.8,0,0,1-4.4-2,4,4,0,0,1-1.55-3.24,4.13,4.13,0,0,1,1.71-3.4A6.93,6.93,0,0,1,315,318a6.57,6.57,0,0,1,4.52,1.52,4.53,4.53,0,0,1,1.64,3.64l0,.07h-2.73a2.75,2.75,0,0,0-.89-2.13,3.64,3.64,0,0,0-2.54-.81,3.75,3.75,0,0,0-2.4.67,2.17,2.17,0,0,0-.84,1.76,1.9,1.9,0,0,0,.91,1.61,10,10,0,0,0,3,1.22,10,10,0,0,1,4.18,2,4.28,4.28,0,0,1,1.43,3.31,4,4,0,0,1-1.71,3.4A7.34,7.34,0,0,1,315,335.6a7.94,7.94,0,0,1-4.69-1.43,4.36,4.36,0,0,1-1.95-3.88l0-.07h2.74a2.65,2.65,0,0,0,1.08,2.32,4.73,4.73,0,0,0,2.8.77,4.07,4.07,0,0,0,2.46-.64A2,2,0,0,0,318.37,331Z" transform="translate(-276.78 -252.85)"/><path d="M327.23,335.35h-2.85V318.29h2.85Z" transform="translate(-276.78 -252.85)"/><path d="M344.45,335.35h-2.84L334,322.89l-.07,0v12.43h-2.85V318.29H334l7.57,12.44.07,0V318.29h2.84Z" transform="translate(-276.78 -252.85)"/><path d="M358.5,327.67H351v5.39h8.66v2.29H348.18V318.29h11.43v2.28H351v4.82h7.47Z" transform="translate(-276.78 -252.85)"/><path d="M371.34,331a2.17,2.17,0,0,0-.79-1.73,7.35,7.35,0,0,0-2.8-1.22,12,12,0,0,1-4.4-2,4,4,0,0,1-1.54-3.24,4.13,4.13,0,0,1,1.71-3.4,6.91,6.91,0,0,1,4.4-1.34,6.57,6.57,0,0,1,4.52,1.52,4.53,4.53,0,0,1,1.64,3.64l0,.07h-2.73a2.75,2.75,0,0,0-.89-2.13,3.65,3.65,0,0,0-2.54-.81,3.75,3.75,0,0,0-2.4.67,2.17,2.17,0,0,0-.84,1.76,1.9,1.9,0,0,0,.91,1.61,10,10,0,0,0,3,1.22,9.94,9.94,0,0,1,4.19,2,4.28,4.28,0,0,1,1.43,3.31,4,4,0,0,1-1.71,3.4A7.34,7.34,0,0,1,368,335.6a7.94,7.94,0,0,1-4.69-1.43,4.36,4.36,0,0,1-1.95-3.88l0-.07h2.74a2.65,2.65,0,0,0,1.08,2.32,4.73,4.73,0,0,0,2.8.77,4.07,4.07,0,0,0,2.46-.64A2,2,0,0,0,371.34,331Z" transform="translate(-276.78 -252.85)"/><path d="M386.43,331a2.17,2.17,0,0,0-.79-1.73,7.29,7.29,0,0,0-2.79-1.22,11.88,11.88,0,0,1-4.4-2,4,4,0,0,1-1.54-3.24,4.15,4.15,0,0,1,1.7-3.4A7,7,0,0,1,383,318a6.56,6.56,0,0,1,4.52,1.52,4.51,4.51,0,0,1,1.65,3.64l0,.07h-2.73a2.72,2.72,0,0,0-.89-2.13,3.64,3.64,0,0,0-2.54-.81,3.75,3.75,0,0,0-2.4.67,2.17,2.17,0,0,0-.84,1.76,1.92,1.92,0,0,0,.91,1.61,10,10,0,0,0,3,1.22,10,10,0,0,1,4.18,2,4.24,4.24,0,0,1,1.43,3.31,4,4,0,0,1-1.7,3.4,7.38,7.38,0,0,1-4.49,1.26,7.89,7.89,0,0,1-4.68-1.43,4.35,4.35,0,0,1-2-3.88l0-.07h2.75a2.64,2.64,0,0,0,1.07,2.32,4.75,4.75,0,0,0,2.8.77,4.12,4.12,0,0,0,2.47-.64A2,2,0,0,0,386.43,331Z" transform="translate(-276.78 -252.85)"/><path d="M411.56,328.35a7.25,7.25,0,0,1-2,5.19,6.74,6.74,0,0,1-5.1,2.06,6.51,6.51,0,0,1-5-2.06,7.3,7.3,0,0,1-1.92-5.19v-3.07a7.33,7.33,0,0,1,1.92-5.18,6.49,6.49,0,0,1,5-2.06,6.74,6.74,0,0,1,5.1,2.06,7.24,7.24,0,0,1,2,5.18Zm-2.84-3.09a5.28,5.28,0,0,0-1.14-3.5,3.8,3.8,0,0,0-3.09-1.38,3.56,3.56,0,0,0-3,1.38,5.42,5.42,0,0,0-1.09,3.5v3.09a5.52,5.52,0,0,0,1.09,3.54,3.6,3.6,0,0,0,3,1.37,3.76,3.76,0,0,0,3.09-1.37,5.33,5.33,0,0,0,1.13-3.54Z" transform="translate(-276.78 -252.85)"/><path d="M425,328.07h-7.48v7.28h-2.85V318.29h11.52v2.28h-8.67v5.22H425Z" transform="translate(-276.78 -252.85)"/><path d="M437.39,333.06h7.84v2.29H434.54V318.29h2.85Z" transform="translate(-276.78 -252.85)"/><path d="M457,331.37h-6.67l-1.36,4h-2.89l6.27-17.06h2.7l6.2,17.06h-2.9ZM451.15,329h5.05l-2.48-7.29h-.07Z" transform="translate(-276.78 -252.85)"/><path d="M467.36,330.8v0l0-.06,3.41-12.48h2.27l3.44,12.51,0,.08v-.11l2.69-12.48H482l-4,17.06h-2.59L472,323.1h-.07l-3.42,12.25h-2.6l-4.05-17.06h2.8Z" transform="translate(-276.78 -252.85)"/></g></g></svg>